<mxfile host="app.diagrams.net" modified="2023-03-21T01:26:13.073Z" agent="5.0 (X11; Ubuntu)" etag="izTCy_yJ2ud1cuapVqDB" version="21.0.8" type="github" pages="2">
  <diagram name="Página-1" id="XK2GG3p-WEng2SZQ1Xq1">
    <mxGraphModel dx="761" dy="795" grid="1" gridSize="10" guides="1" tooltips="1" connect="1" arrows="1" fold="1" page="1" pageScale="1" pageWidth="827" pageHeight="1169" math="0" shadow="0">
      <root>
        <mxCell id="0" />
        <mxCell id="1" parent="0" />
        <mxCell id="lgyYJ_3k5Mx3qwlhNIzL-27" style="edgeStyle=orthogonalEdgeStyle;rounded=0;orthogonalLoop=1;jettySize=auto;html=1;" edge="1" parent="1" source="lgyYJ_3k5Mx3qwlhNIzL-1" target="lgyYJ_3k5Mx3qwlhNIzL-2">
          <mxGeometry relative="1" as="geometry">
            <mxPoint x="140" y="490" as="targetPoint" />
          </mxGeometry>
        </mxCell>
        <mxCell id="lgyYJ_3k5Mx3qwlhNIzL-30" style="edgeStyle=orthogonalEdgeStyle;rounded=0;orthogonalLoop=1;jettySize=auto;html=1;entryX=0.5;entryY=1;entryDx=0;entryDy=0;" edge="1" parent="1" source="lgyYJ_3k5Mx3qwlhNIzL-1" target="lgyYJ_3k5Mx3qwlhNIzL-3">
          <mxGeometry relative="1" as="geometry" />
        </mxCell>
        <mxCell id="lgyYJ_3k5Mx3qwlhNIzL-34" style="edgeStyle=orthogonalEdgeStyle;rounded=0;orthogonalLoop=1;jettySize=auto;html=1;entryX=0.5;entryY=0;entryDx=0;entryDy=0;" edge="1" parent="1" source="lgyYJ_3k5Mx3qwlhNIzL-24" target="lgyYJ_3k5Mx3qwlhNIzL-4">
          <mxGeometry relative="1" as="geometry" />
        </mxCell>
        <mxCell id="lgyYJ_3k5Mx3qwlhNIzL-1" value="PECAS" style="rounded=0;whiteSpace=wrap;html=1;" vertex="1" parent="1">
          <mxGeometry x="370" y="440" width="120" height="60" as="geometry" />
        </mxCell>
        <mxCell id="lgyYJ_3k5Mx3qwlhNIzL-2" value="MARCAS" style="rounded=0;whiteSpace=wrap;html=1;" vertex="1" parent="1">
          <mxGeometry x="130" y="440" width="120" height="60" as="geometry" />
        </mxCell>
        <mxCell id="lgyYJ_3k5Mx3qwlhNIzL-3" value="CARROS" style="rounded=0;whiteSpace=wrap;html=1;" vertex="1" parent="1">
          <mxGeometry x="370" y="240" width="120" height="60" as="geometry" />
        </mxCell>
        <mxCell id="lgyYJ_3k5Mx3qwlhNIzL-4" value="CLIENTES" style="rounded=0;whiteSpace=wrap;html=1;" vertex="1" parent="1">
          <mxGeometry x="370" y="640" width="120" height="60" as="geometry" />
        </mxCell>
        <mxCell id="lgyYJ_3k5Mx3qwlhNIzL-5" value="FORMAS DE PAGAMENTO" style="rounded=0;whiteSpace=wrap;html=1;" vertex="1" parent="1">
          <mxGeometry x="600" y="550" width="120" height="60" as="geometry" />
        </mxCell>
        <mxCell id="lgyYJ_3k5Mx3qwlhNIzL-42" style="edgeStyle=orthogonalEdgeStyle;rounded=0;orthogonalLoop=1;jettySize=auto;html=1;" edge="1" parent="1" source="lgyYJ_3k5Mx3qwlhNIzL-6" target="lgyYJ_3k5Mx3qwlhNIzL-7">
          <mxGeometry relative="1" as="geometry" />
        </mxCell>
        <mxCell id="lgyYJ_3k5Mx3qwlhNIzL-6" value="ATENDENTES" style="rounded=0;whiteSpace=wrap;html=1;" vertex="1" parent="1">
          <mxGeometry x="130" y="550" width="120" height="60" as="geometry" />
        </mxCell>
        <mxCell id="lgyYJ_3k5Mx3qwlhNIzL-7" value="NIVEIS" style="rounded=0;whiteSpace=wrap;html=1;" vertex="1" parent="1">
          <mxGeometry x="130" y="680" width="120" height="60" as="geometry" />
        </mxCell>
        <mxCell id="lgyYJ_3k5Mx3qwlhNIzL-28" value="(1,1)" style="text;html=1;align=center;verticalAlign=middle;resizable=0;points=[];autosize=1;strokeColor=none;fillColor=none;" vertex="1" parent="1">
          <mxGeometry x="250" y="470" width="50" height="30" as="geometry" />
        </mxCell>
        <mxCell id="lgyYJ_3k5Mx3qwlhNIzL-29" value="(0,N)" style="text;html=1;align=center;verticalAlign=middle;resizable=0;points=[];autosize=1;strokeColor=none;fillColor=none;" vertex="1" parent="1">
          <mxGeometry x="320" y="470" width="50" height="30" as="geometry" />
        </mxCell>
        <mxCell id="lgyYJ_3k5Mx3qwlhNIzL-31" value="(0,N)" style="text;html=1;align=center;verticalAlign=middle;resizable=0;points=[];autosize=1;strokeColor=none;fillColor=none;" vertex="1" parent="1">
          <mxGeometry x="430" y="300" width="50" height="30" as="geometry" />
        </mxCell>
        <mxCell id="lgyYJ_3k5Mx3qwlhNIzL-32" value="(1,N)" style="text;html=1;align=center;verticalAlign=middle;resizable=0;points=[];autosize=1;strokeColor=none;fillColor=none;" vertex="1" parent="1">
          <mxGeometry x="430" y="410" width="50" height="30" as="geometry" />
        </mxCell>
        <mxCell id="lgyYJ_3k5Mx3qwlhNIzL-33" value="MONTAGEM" style="rounded=1;whiteSpace=wrap;html=1;" vertex="1" parent="1">
          <mxGeometry x="390" y="350" width="80" height="40" as="geometry" />
        </mxCell>
        <mxCell id="lgyYJ_3k5Mx3qwlhNIzL-35" value="(0,N)" style="text;html=1;align=center;verticalAlign=middle;resizable=0;points=[];autosize=1;strokeColor=none;fillColor=none;" vertex="1" parent="1">
          <mxGeometry x="440" y="610" width="50" height="30" as="geometry" />
        </mxCell>
        <mxCell id="lgyYJ_3k5Mx3qwlhNIzL-36" value="(0,N)" style="text;html=1;align=center;verticalAlign=middle;resizable=0;points=[];autosize=1;strokeColor=none;fillColor=none;" vertex="1" parent="1">
          <mxGeometry x="430" y="500" width="50" height="30" as="geometry" />
        </mxCell>
        <mxCell id="lgyYJ_3k5Mx3qwlhNIzL-37" value="" style="edgeStyle=orthogonalEdgeStyle;rounded=0;orthogonalLoop=1;jettySize=auto;html=1;entryX=0.5;entryY=0;entryDx=0;entryDy=0;" edge="1" parent="1" source="lgyYJ_3k5Mx3qwlhNIzL-1" target="lgyYJ_3k5Mx3qwlhNIzL-24">
          <mxGeometry relative="1" as="geometry">
            <mxPoint x="430" y="500" as="sourcePoint" />
            <mxPoint x="430" y="640" as="targetPoint" />
          </mxGeometry>
        </mxCell>
        <mxCell id="lgyYJ_3k5Mx3qwlhNIzL-39" style="edgeStyle=orthogonalEdgeStyle;rounded=0;orthogonalLoop=1;jettySize=auto;html=1;entryX=0;entryY=0.5;entryDx=0;entryDy=0;" edge="1" parent="1" source="lgyYJ_3k5Mx3qwlhNIzL-24" target="lgyYJ_3k5Mx3qwlhNIzL-5">
          <mxGeometry relative="1" as="geometry" />
        </mxCell>
        <mxCell id="lgyYJ_3k5Mx3qwlhNIzL-43" style="edgeStyle=orthogonalEdgeStyle;rounded=0;orthogonalLoop=1;jettySize=auto;html=1;" edge="1" parent="1" source="lgyYJ_3k5Mx3qwlhNIzL-24" target="lgyYJ_3k5Mx3qwlhNIzL-6">
          <mxGeometry relative="1" as="geometry" />
        </mxCell>
        <mxCell id="lgyYJ_3k5Mx3qwlhNIzL-24" value="COMPRAS" style="rounded=0;whiteSpace=wrap;html=1;" vertex="1" parent="1">
          <mxGeometry x="385" y="560" width="90" height="40" as="geometry" />
        </mxCell>
        <mxCell id="lgyYJ_3k5Mx3qwlhNIzL-40" value="(1,1)" style="text;html=1;align=center;verticalAlign=middle;resizable=0;points=[];autosize=1;strokeColor=none;fillColor=none;" vertex="1" parent="1">
          <mxGeometry x="560" y="555" width="50" height="30" as="geometry" />
        </mxCell>
        <mxCell id="lgyYJ_3k5Mx3qwlhNIzL-41" value="(0,N)" style="text;html=1;align=center;verticalAlign=middle;resizable=0;points=[];autosize=1;strokeColor=none;fillColor=none;" vertex="1" parent="1">
          <mxGeometry x="470" y="554.5" width="50" height="30" as="geometry" />
        </mxCell>
        <mxCell id="lgyYJ_3k5Mx3qwlhNIzL-44" value="(1,1)" style="text;html=1;align=center;verticalAlign=middle;resizable=0;points=[];autosize=1;strokeColor=none;fillColor=none;" vertex="1" parent="1">
          <mxGeometry x="240" y="550" width="50" height="30" as="geometry" />
        </mxCell>
        <mxCell id="lgyYJ_3k5Mx3qwlhNIzL-45" value="(0,N)" style="text;html=1;align=center;verticalAlign=middle;resizable=0;points=[];autosize=1;strokeColor=none;fillColor=none;" vertex="1" parent="1">
          <mxGeometry x="340" y="580" width="50" height="30" as="geometry" />
        </mxCell>
        <mxCell id="lgyYJ_3k5Mx3qwlhNIzL-47" value="(1,1)" style="text;html=1;align=center;verticalAlign=middle;resizable=0;points=[];autosize=1;strokeColor=none;fillColor=none;" vertex="1" parent="1">
          <mxGeometry x="190" y="655" width="50" height="30" as="geometry" />
        </mxCell>
        <mxCell id="lgyYJ_3k5Mx3qwlhNIzL-48" value="(0,N)" style="text;html=1;align=center;verticalAlign=middle;resizable=0;points=[];autosize=1;strokeColor=none;fillColor=none;" vertex="1" parent="1">
          <mxGeometry x="190" y="610" width="50" height="30" as="geometry" />
        </mxCell>
      </root>
    </mxGraphModel>
  </diagram>
  <diagram id="A7G8z5mj9AbTxsvtRnjk" name="Página-2">
    <mxGraphModel dx="1087" dy="1136" grid="1" gridSize="10" guides="1" tooltips="1" connect="1" arrows="1" fold="1" page="1" pageScale="1" pageWidth="827" pageHeight="1169" math="0" shadow="0">
      <root>
        <mxCell id="0" />
        <mxCell id="1" parent="0" />
        <mxCell id="IzJalt_W_CgmXy1Fhg8m-10" value="" style="rounded=0;whiteSpace=wrap;html=1;" vertex="1" parent="1">
          <mxGeometry x="100" y="50" width="120" height="60" as="geometry" />
        </mxCell>
        <mxCell id="IzJalt_W_CgmXy1Fhg8m-11" value="" style="group" connectable="0" vertex="1" parent="1">
          <mxGeometry x="250" y="71" width="178" height="20" as="geometry" />
        </mxCell>
        <mxCell id="IzJalt_W_CgmXy1Fhg8m-12" value="" style="line;strokeWidth=2;html=1;" vertex="1" parent="IzJalt_W_CgmXy1Fhg8m-11">
          <mxGeometry y="4" width="160" height="10" as="geometry" />
        </mxCell>
        <mxCell id="IzJalt_W_CgmXy1Fhg8m-13" value="" style="ellipse;shape=doubleEllipse;whiteSpace=wrap;html=1;aspect=fixed;" vertex="1" parent="IzJalt_W_CgmXy1Fhg8m-11">
          <mxGeometry x="158" width="20" height="20" as="geometry" />
        </mxCell>
        <mxCell id="IzJalt_W_CgmXy1Fhg8m-14" value="" style="group" connectable="0" vertex="1" parent="1">
          <mxGeometry x="460" y="71" width="180" height="20" as="geometry" />
        </mxCell>
        <mxCell id="IzJalt_W_CgmXy1Fhg8m-15" value="" style="line;strokeWidth=2;html=1;" vertex="1" parent="IzJalt_W_CgmXy1Fhg8m-14">
          <mxGeometry y="5" width="160" height="10" as="geometry" />
        </mxCell>
        <mxCell id="IzJalt_W_CgmXy1Fhg8m-16" value="" style="ellipse;whiteSpace=wrap;html=1;aspect=fixed;" vertex="1" parent="IzJalt_W_CgmXy1Fhg8m-14">
          <mxGeometry x="160" width="20" height="20" as="geometry" />
        </mxCell>
        <mxCell id="IzJalt_W_CgmXy1Fhg8m-17" value="" style="group" connectable="0" vertex="1" parent="1">
          <mxGeometry x="670" y="70" width="180" height="20" as="geometry" />
        </mxCell>
        <mxCell id="IzJalt_W_CgmXy1Fhg8m-18" value="" style="line;strokeWidth=2;html=1;" vertex="1" parent="IzJalt_W_CgmXy1Fhg8m-17">
          <mxGeometry y="5" width="160" height="10" as="geometry" />
        </mxCell>
        <mxCell id="IzJalt_W_CgmXy1Fhg8m-19" value="" style="ellipse;whiteSpace=wrap;html=1;aspect=fixed;fillColor=#2E2E2E;" vertex="1" parent="IzJalt_W_CgmXy1Fhg8m-17">
          <mxGeometry x="160" width="20" height="20" as="geometry" />
        </mxCell>
        <mxCell id="IzJalt_W_CgmXy1Fhg8m-20" value="(0,n)" style="text;html=1;strokeColor=none;fillColor=none;align=center;verticalAlign=middle;whiteSpace=wrap;rounded=0;" vertex="1" parent="1">
          <mxGeometry x="300" y="40" width="60" height="30" as="geometry" />
        </mxCell>
        <mxCell id="IzJalt_W_CgmXy1Fhg8m-21" value="(0,1)" style="text;html=1;strokeColor=none;fillColor=none;align=center;verticalAlign=middle;whiteSpace=wrap;rounded=0;" vertex="1" parent="1">
          <mxGeometry x="250" y="41" width="60" height="30" as="geometry" />
        </mxCell>
        <mxCell id="IzJalt_W_CgmXy1Fhg8m-22" value="(1,n)" style="text;html=1;strokeColor=none;fillColor=none;align=center;verticalAlign=middle;whiteSpace=wrap;rounded=0;" vertex="1" parent="1">
          <mxGeometry x="360" y="40" width="60" height="30" as="geometry" />
        </mxCell>
        <mxCell id="IzJalt_W_CgmXy1Fhg8m-23" value="(1,1)" style="text;html=1;strokeColor=none;fillColor=none;align=center;verticalAlign=middle;whiteSpace=wrap;rounded=0;" vertex="1" parent="1">
          <mxGeometry x="410" y="40" width="60" height="30" as="geometry" />
        </mxCell>
        <mxCell id="IzJalt_W_CgmXy1Fhg8m-30" value="AGENDA" style="rounded=0;whiteSpace=wrap;html=1;" vertex="1" parent="1">
          <mxGeometry x="160" y="220" width="186" height="110" as="geometry" />
        </mxCell>
        <mxCell id="lhArjtVBxI7jspUMuVST-1" style="edgeStyle=orthogonalEdgeStyle;rounded=0;orthogonalLoop=1;jettySize=auto;html=1;entryX=0.5;entryY=1;entryDx=0;entryDy=0;" edge="1" parent="1" source="IzJalt_W_CgmXy1Fhg8m-31" target="IzJalt_W_CgmXy1Fhg8m-32">
          <mxGeometry relative="1" as="geometry" />
        </mxCell>
        <mxCell id="lhArjtVBxI7jspUMuVST-3" style="edgeStyle=orthogonalEdgeStyle;rounded=0;orthogonalLoop=1;jettySize=auto;html=1;" edge="1" parent="1" source="IzJalt_W_CgmXy1Fhg8m-31" target="lhArjtVBxI7jspUMuVST-2">
          <mxGeometry relative="1" as="geometry" />
        </mxCell>
        <mxCell id="IzJalt_W_CgmXy1Fhg8m-31" value="VENDAS" style="rounded=0;whiteSpace=wrap;html=1;" vertex="1" parent="1">
          <mxGeometry x="480" y="430" width="126" height="70" as="geometry" />
        </mxCell>
        <mxCell id="lhArjtVBxI7jspUMuVST-17" style="edgeStyle=orthogonalEdgeStyle;rounded=0;orthogonalLoop=1;jettySize=auto;html=1;" edge="1" parent="1" source="IzJalt_W_CgmXy1Fhg8m-32" target="IzJalt_W_CgmXy1Fhg8m-30">
          <mxGeometry relative="1" as="geometry" />
        </mxCell>
        <mxCell id="IzJalt_W_CgmXy1Fhg8m-32" value="CLIENTES" style="rounded=0;whiteSpace=wrap;html=1;" vertex="1" parent="1">
          <mxGeometry x="450" y="220" width="186" height="110" as="geometry" />
        </mxCell>
        <mxCell id="IzJalt_W_CgmXy1Fhg8m-50" style="edgeStyle=orthogonalEdgeStyle;rounded=0;orthogonalLoop=1;jettySize=auto;html=1;" edge="1" parent="1" source="IzJalt_W_CgmXy1Fhg8m-49" target="IzJalt_W_CgmXy1Fhg8m-31">
          <mxGeometry relative="1" as="geometry" />
        </mxCell>
        <mxCell id="lhArjtVBxI7jspUMuVST-5" style="edgeStyle=orthogonalEdgeStyle;rounded=0;orthogonalLoop=1;jettySize=auto;html=1;" edge="1" parent="1" source="IzJalt_W_CgmXy1Fhg8m-49">
          <mxGeometry relative="1" as="geometry">
            <mxPoint x="770" y="674.9999999999998" as="targetPoint" />
          </mxGeometry>
        </mxCell>
        <mxCell id="lhArjtVBxI7jspUMuVST-10" style="edgeStyle=orthogonalEdgeStyle;rounded=0;orthogonalLoop=1;jettySize=auto;html=1;entryX=0.5;entryY=0;entryDx=0;entryDy=0;" edge="1" parent="1" source="IzJalt_W_CgmXy1Fhg8m-49" target="lhArjtVBxI7jspUMuVST-9">
          <mxGeometry relative="1" as="geometry" />
        </mxCell>
        <mxCell id="IzJalt_W_CgmXy1Fhg8m-49" value="PRODUTOS" style="rounded=0;whiteSpace=wrap;html=1;" vertex="1" parent="1">
          <mxGeometry x="450" y="620" width="186" height="110" as="geometry" />
        </mxCell>
        <mxCell id="lhArjtVBxI7jspUMuVST-2" value="FORMAS PAGAMENTO" style="rounded=0;whiteSpace=wrap;html=1;" vertex="1" parent="1">
          <mxGeometry x="700" y="410" width="186" height="110" as="geometry" />
        </mxCell>
        <mxCell id="lhArjtVBxI7jspUMuVST-9" value="CATEGORIAS" style="rounded=0;whiteSpace=wrap;html=1;" vertex="1" parent="1">
          <mxGeometry x="450" y="800" width="186" height="110" as="geometry" />
        </mxCell>
        <mxCell id="lhArjtVBxI7jspUMuVST-19" style="edgeStyle=orthogonalEdgeStyle;rounded=0;orthogonalLoop=1;jettySize=auto;html=1;entryX=0.5;entryY=1;entryDx=0;entryDy=0;" edge="1" parent="1" target="IzJalt_W_CgmXy1Fhg8m-30">
          <mxGeometry relative="1" as="geometry">
            <mxPoint x="253" y="390.0000000000002" as="sourcePoint" />
          </mxGeometry>
        </mxCell>
        <mxCell id="lhArjtVBxI7jspUMuVST-24" value="" style="group" connectable="0" vertex="1" parent="1">
          <mxGeometry x="840" y="620" width="180" height="20" as="geometry" />
        </mxCell>
        <mxCell id="lhArjtVBxI7jspUMuVST-25" value="" style="line;strokeWidth=2;html=1;" vertex="1" parent="lhArjtVBxI7jspUMuVST-24">
          <mxGeometry y="5" width="160" height="10" as="geometry" />
        </mxCell>
        <mxCell id="lhArjtVBxI7jspUMuVST-26" value="" style="ellipse;whiteSpace=wrap;html=1;aspect=fixed;fillColor=#2E2E2E;" vertex="1" parent="lhArjtVBxI7jspUMuVST-24">
          <mxGeometry x="160" width="20" height="20" as="geometry" />
        </mxCell>
        <mxCell id="lhArjtVBxI7jspUMuVST-28" value="ID_MARCAS" style="text;html=1;align=center;verticalAlign=middle;resizable=0;points=[];autosize=1;strokeColor=none;fillColor=none;" vertex="1" parent="1">
          <mxGeometry x="1020" y="620" width="90" height="30" as="geometry" />
        </mxCell>
        <mxCell id="lhArjtVBxI7jspUMuVST-34" value="" style="group" connectable="0" vertex="1" parent="1">
          <mxGeometry x="840" y="650" width="180" height="20" as="geometry" />
        </mxCell>
        <mxCell id="lhArjtVBxI7jspUMuVST-35" value="" style="line;strokeWidth=2;html=1;" vertex="1" parent="lhArjtVBxI7jspUMuVST-34">
          <mxGeometry y="5" width="160" height="10" as="geometry" />
        </mxCell>
        <mxCell id="lhArjtVBxI7jspUMuVST-36" value="" style="ellipse;whiteSpace=wrap;html=1;aspect=fixed;" vertex="1" parent="lhArjtVBxI7jspUMuVST-34">
          <mxGeometry x="160" width="20" height="20" as="geometry" />
        </mxCell>
        <mxCell id="lhArjtVBxI7jspUMuVST-38" value="NOME" style="text;html=1;align=center;verticalAlign=middle;resizable=0;points=[];autosize=1;strokeColor=none;fillColor=none;" vertex="1" parent="1">
          <mxGeometry x="1020" y="650" width="60" height="30" as="geometry" />
        </mxCell>
        <mxCell id="lhArjtVBxI7jspUMuVST-46" value="" style="group" connectable="0" vertex="1" parent="1">
          <mxGeometry x="840" y="680" width="180" height="20" as="geometry" />
        </mxCell>
        <mxCell id="lhArjtVBxI7jspUMuVST-47" value="" style="line;strokeWidth=2;html=1;" vertex="1" parent="lhArjtVBxI7jspUMuVST-46">
          <mxGeometry y="5" width="160" height="10" as="geometry" />
        </mxCell>
        <mxCell id="lhArjtVBxI7jspUMuVST-48" value="" style="ellipse;whiteSpace=wrap;html=1;aspect=fixed;" vertex="1" parent="lhArjtVBxI7jspUMuVST-46">
          <mxGeometry x="160" width="20" height="20" as="geometry" />
        </mxCell>
        <mxCell id="lhArjtVBxI7jspUMuVST-49" value="MARCAS" style="rounded=0;whiteSpace=wrap;html=1;" vertex="1" parent="1">
          <mxGeometry x="770" y="620" width="186" height="110" as="geometry" />
        </mxCell>
        <mxCell id="lhArjtVBxI7jspUMuVST-50" value="NOME" style="text;html=1;align=center;verticalAlign=middle;resizable=0;points=[];autosize=1;strokeColor=none;fillColor=none;" vertex="1" parent="1">
          <mxGeometry x="1020" y="680" width="60" height="30" as="geometry" />
        </mxCell>
        <mxCell id="lhArjtVBxI7jspUMuVST-60" value="" style="group;rotation=90;" connectable="0" vertex="1" parent="1">
          <mxGeometry x="80" y="470" width="180" height="20" as="geometry" />
        </mxCell>
        <mxCell id="lhArjtVBxI7jspUMuVST-61" value="" style="line;strokeWidth=2;html=1;rotation=90;" vertex="1" parent="lhArjtVBxI7jspUMuVST-60">
          <mxGeometry x="10" y="-5" width="160" height="10" as="geometry" />
        </mxCell>
        <mxCell id="lhArjtVBxI7jspUMuVST-62" value="" style="ellipse;whiteSpace=wrap;html=1;aspect=fixed;fillColor=#2E2E2E;rotation=90;" vertex="1" parent="lhArjtVBxI7jspUMuVST-60">
          <mxGeometry x="80" y="80" width="20" height="20" as="geometry" />
        </mxCell>
        <mxCell id="lhArjtVBxI7jspUMuVST-64" value="ID_SERVIÇOS" style="text;html=1;align=center;verticalAlign=middle;resizable=0;points=[];autosize=1;strokeColor=none;fillColor=none;" vertex="1" parent="1">
          <mxGeometry x="120" y="580" width="100" height="30" as="geometry" />
        </mxCell>
        <mxCell id="lhArjtVBxI7jspUMuVST-65" value="" style="group;rotation=90;" connectable="0" vertex="1" parent="1">
          <mxGeometry x="250" y="470" width="180" height="20" as="geometry" />
        </mxCell>
        <mxCell id="lhArjtVBxI7jspUMuVST-66" value="" style="line;strokeWidth=2;html=1;rotation=90;" vertex="1" parent="lhArjtVBxI7jspUMuVST-65">
          <mxGeometry x="10" y="-5" width="160" height="10" as="geometry" />
        </mxCell>
        <mxCell id="lhArjtVBxI7jspUMuVST-67" value="" style="ellipse;whiteSpace=wrap;html=1;aspect=fixed;rotation=90;" vertex="1" parent="lhArjtVBxI7jspUMuVST-65">
          <mxGeometry x="80" y="80" width="20" height="20" as="geometry" />
        </mxCell>
        <mxCell id="lhArjtVBxI7jspUMuVST-69" value="NOME" style="text;html=1;align=center;verticalAlign=middle;resizable=0;points=[];autosize=1;strokeColor=none;fillColor=none;" vertex="1" parent="1">
          <mxGeometry x="320" y="570" width="60" height="30" as="geometry" />
        </mxCell>
        <mxCell id="lhArjtVBxI7jspUMuVST-71" value="" style="group;rotation=90;" connectable="0" vertex="1" parent="1">
          <mxGeometry x="215" y="520" width="180" height="20" as="geometry" />
        </mxCell>
        <mxCell id="lhArjtVBxI7jspUMuVST-72" value="" style="line;strokeWidth=2;html=1;rotation=90;" vertex="1" parent="lhArjtVBxI7jspUMuVST-71">
          <mxGeometry x="10" y="-5" width="160" height="10" as="geometry" />
        </mxCell>
        <mxCell id="lhArjtVBxI7jspUMuVST-73" value="" style="ellipse;whiteSpace=wrap;html=1;aspect=fixed;rotation=90;" vertex="1" parent="lhArjtVBxI7jspUMuVST-71">
          <mxGeometry x="80" y="80" width="20" height="20" as="geometry" />
        </mxCell>
        <mxCell id="lhArjtVBxI7jspUMuVST-74" value="EVENTO" style="text;html=1;align=center;verticalAlign=middle;resizable=0;points=[];autosize=1;strokeColor=none;fillColor=none;" vertex="1" parent="1">
          <mxGeometry x="270" y="620" width="70" height="30" as="geometry" />
        </mxCell>
        <mxCell id="lhArjtVBxI7jspUMuVST-79" value="" style="line;strokeWidth=2;html=1;rotation=90;" vertex="1" parent="1">
          <mxGeometry x="180" y="500" width="160" height="10" as="geometry" />
        </mxCell>
        <mxCell id="lhArjtVBxI7jspUMuVST-80" value="" style="ellipse;whiteSpace=wrap;html=1;aspect=fixed;rotation=90;" vertex="1" parent="1">
          <mxGeometry x="250" y="580" width="20" height="20" as="geometry" />
        </mxCell>
        <mxCell id="lhArjtVBxI7jspUMuVST-81" value="SERVIÇOS" style="rounded=0;whiteSpace=wrap;html=1;" vertex="1" parent="1">
          <mxGeometry x="160" y="390" width="186" height="110" as="geometry" />
        </mxCell>
        <mxCell id="lhArjtVBxI7jspUMuVST-82" value="PREÇO" style="text;html=1;align=center;verticalAlign=middle;resizable=0;points=[];autosize=1;strokeColor=none;fillColor=none;" vertex="1" parent="1">
          <mxGeometry x="225" y="600" width="70" height="30" as="geometry" />
        </mxCell>
      </root>
    </mxGraphModel>
  </diagram>
</mxfile>
